<svg xmlns="http://www.w3.org/2000/svg" xmlns:xlink="http://www.w3.org/1999/xlink" width="250" zoomAndPan="magnify" viewBox="0 0 187.5 104.999996" height="140" preserveAspectRatio="xMidYMid meet" version="1.2"><defs/><g id="4a7bdb76e5"><g style="fill:#ffffff;fill-opacity:1;"><g transform="translate(24.180724, 55.351786)"><path style="stroke:none" d="M 7.234375 -6.984375 L 7.234375 0 L 5.90625 0 L 2.421875 -4.234375 L 2.421875 0 L 0.828125 0 L 0.828125 -6.984375 L 2.15625 -6.984375 L 5.625 -2.734375 L 5.625 -6.984375 Z M 7.234375 -6.984375 "/></g></g><g style="fill:#ffffff;fill-opacity:1;"><g transform="translate(35.686841, 55.351786)"><path style="stroke:none" d="M 4.203125 0.125 C 3.484375 0.125 2.832031 -0.03125 2.25 -0.34375 C 1.664062 -0.65625 1.207031 -1.085938 0.875 -1.640625 C 0.550781 -2.191406 0.390625 -2.804688 0.390625 -3.484375 C 0.390625 -4.171875 0.550781 -4.785156 0.875 -5.328125 C 1.207031 -5.878906 1.664062 -6.3125 2.25 -6.625 C 2.832031 -6.9375 3.484375 -7.09375 4.203125 -7.09375 C 4.929688 -7.09375 5.582031 -6.9375 6.15625 -6.625 C 6.738281 -6.3125 7.195312 -5.878906 7.53125 -5.328125 C 7.863281 -4.785156 8.03125 -4.171875 8.03125 -3.484375 C 8.03125 -2.804688 7.863281 -2.191406 7.53125 -1.640625 C 7.195312 -1.085938 6.738281 -0.65625 6.15625 -0.34375 C 5.582031 -0.03125 4.929688 0.125 4.203125 0.125 Z M 4.203125 -1.25 C 4.617188 -1.25 4.992188 -1.34375 5.328125 -1.53125 C 5.660156 -1.726562 5.921875 -1.992188 6.109375 -2.328125 C 6.296875 -2.671875 6.390625 -3.054688 6.390625 -3.484375 C 6.390625 -3.921875 6.296875 -4.304688 6.109375 -4.640625 C 5.921875 -4.984375 5.660156 -5.25 5.328125 -5.4375 C 4.992188 -5.625 4.617188 -5.71875 4.203125 -5.71875 C 3.796875 -5.71875 3.425781 -5.625 3.09375 -5.4375 C 2.757812 -5.25 2.5 -4.984375 2.3125 -4.640625 C 2.125 -4.304688 2.03125 -3.921875 2.03125 -3.484375 C 2.03125 -3.054688 2.125 -2.671875 2.3125 -2.328125 C 2.5 -1.992188 2.757812 -1.726562 3.09375 -1.53125 C 3.425781 -1.34375 3.796875 -1.25 4.203125 -1.25 Z M 4.203125 -1.25 "/></g></g><g style="fill:#ffffff;fill-opacity:1;"><g transform="translate(47.551861, 55.351786)"><path style="stroke:none" d=""/></g></g><g style="fill:#ffffff;fill-opacity:1;"><g transform="translate(53.824006, 55.351786)"><path style="stroke:none" d="M 4.171875 0.125 C 3.453125 0.125 2.804688 -0.03125 2.234375 -0.34375 C 1.660156 -0.65625 1.207031 -1.082031 0.875 -1.625 C 0.550781 -2.175781 0.390625 -2.796875 0.390625 -3.484375 C 0.390625 -4.179688 0.550781 -4.800781 0.875 -5.34375 C 1.207031 -5.894531 1.660156 -6.320312 2.234375 -6.625 C 2.804688 -6.9375 3.453125 -7.09375 4.171875 -7.09375 C 4.773438 -7.09375 5.320312 -6.984375 5.8125 -6.765625 C 6.300781 -6.554688 6.710938 -6.253906 7.046875 -5.859375 L 6.015625 -4.90625 C 5.535156 -5.445312 4.945312 -5.71875 4.25 -5.71875 C 3.820312 -5.71875 3.4375 -5.625 3.09375 -5.4375 C 2.757812 -5.25 2.5 -4.984375 2.3125 -4.640625 C 2.125 -4.304688 2.03125 -3.921875 2.03125 -3.484375 C 2.03125 -3.054688 2.125 -2.671875 2.3125 -2.328125 C 2.5 -1.992188 2.757812 -1.726562 3.09375 -1.53125 C 3.4375 -1.34375 3.820312 -1.25 4.25 -1.25 C 4.945312 -1.25 5.535156 -1.523438 6.015625 -2.078125 L 7.046875 -1.125 C 6.710938 -0.71875 6.300781 -0.40625 5.8125 -0.1875 C 5.320312 0.0195312 4.773438 0.125 4.171875 0.125 Z M 4.171875 0.125 "/></g></g><g style="fill:#ffffff;fill-opacity:1;"><g transform="translate(64.582415, 55.351786)"><path style="stroke:none" d="M 4.203125 0.125 C 3.484375 0.125 2.832031 -0.03125 2.25 -0.34375 C 1.664062 -0.65625 1.207031 -1.085938 0.875 -1.640625 C 0.550781 -2.191406 0.390625 -2.804688 0.390625 -3.484375 C 0.390625 -4.171875 0.550781 -4.785156 0.875 -5.328125 C 1.207031 -5.878906 1.664062 -6.3125 2.25 -6.625 C 2.832031 -6.9375 3.484375 -7.09375 4.203125 -7.09375 C 4.929688 -7.09375 5.582031 -6.9375 6.15625 -6.625 C 6.738281 -6.3125 7.195312 -5.878906 7.53125 -5.328125 C 7.863281 -4.785156 8.03125 -4.171875 8.03125 -3.484375 C 8.03125 -2.804688 7.863281 -2.191406 7.53125 -1.640625 C 7.195312 -1.085938 6.738281 -0.65625 6.15625 -0.34375 C 5.582031 -0.03125 4.929688 0.125 4.203125 0.125 Z M 4.203125 -1.25 C 4.617188 -1.25 4.992188 -1.34375 5.328125 -1.53125 C 5.660156 -1.726562 5.921875 -1.992188 6.109375 -2.328125 C 6.296875 -2.671875 6.390625 -3.054688 6.390625 -3.484375 C 6.390625 -3.921875 6.296875 -4.304688 6.109375 -4.640625 C 5.921875 -4.984375 5.660156 -5.25 5.328125 -5.4375 C 4.992188 -5.625 4.617188 -5.71875 4.203125 -5.71875 C 3.796875 -5.71875 3.425781 -5.625 3.09375 -5.4375 C 2.757812 -5.25 2.5 -4.984375 2.3125 -4.640625 C 2.125 -4.304688 2.03125 -3.921875 2.03125 -3.484375 C 2.03125 -3.054688 2.125 -2.671875 2.3125 -2.328125 C 2.5 -1.992188 2.757812 -1.726562 3.09375 -1.53125 C 3.425781 -1.34375 3.796875 -1.25 4.203125 -1.25 Z M 4.203125 -1.25 "/></g></g><g style="fill:#ffffff;fill-opacity:1;"><g transform="translate(76.447434, 55.351786)"><path style="stroke:none" d="M 7.53125 -6.984375 L 4.515625 0 L 2.921875 0 L -0.09375 -6.984375 L 1.65625 -6.984375 L 3.78125 -2 L 5.9375 -6.984375 Z M 7.53125 -6.984375 "/></g></g><g style="fill:#ffffff;fill-opacity:1;"><g transform="translate(87.335445, 55.351786)"><path style="stroke:none" d="M 6.234375 -1.296875 L 6.234375 0 L 0.828125 0 L 0.828125 -6.984375 L 6.09375 -6.984375 L 6.09375 -5.6875 L 2.4375 -5.6875 L 2.4375 -4.171875 L 5.671875 -4.171875 L 5.671875 -2.90625 L 2.4375 -2.90625 L 2.4375 -1.296875 Z M 6.234375 -1.296875 "/></g></g><g style="fill:#ffffff;fill-opacity:1;"><g transform="translate(97.475746, 55.351786)"><path style="stroke:none" d="M 5.28125 0 L 3.921875 -1.9375 L 2.4375 -1.9375 L 2.4375 0 L 0.828125 0 L 0.828125 -6.984375 L 3.84375 -6.984375 C 4.46875 -6.984375 5.003906 -6.878906 5.453125 -6.671875 C 5.910156 -6.460938 6.257812 -6.164062 6.5 -5.78125 C 6.75 -5.40625 6.875 -4.960938 6.875 -4.453125 C 6.875 -3.929688 6.75 -3.484375 6.5 -3.109375 C 6.25 -2.734375 5.894531 -2.445312 5.4375 -2.25 L 7.015625 0 Z M 5.25 -4.453125 C 5.25 -4.835938 5.117188 -5.132812 4.859375 -5.34375 C 4.609375 -5.550781 4.242188 -5.65625 3.765625 -5.65625 L 2.4375 -5.65625 L 2.4375 -3.234375 L 3.765625 -3.234375 C 4.242188 -3.234375 4.609375 -3.335938 4.859375 -3.546875 C 5.117188 -3.765625 5.25 -4.066406 5.25 -4.453125 Z M 5.25 -4.453125 "/></g></g><g style="fill:#ffffff;fill-opacity:1;"><g transform="translate(108.254094, 55.351786)"><path style="stroke:none" d=""/></g></g><g style="fill:#ffffff;fill-opacity:1;"><g transform="translate(114.52624, 55.351786)"><path style="stroke:none" d="M 2.4375 -5.6875 L 2.4375 -3.84375 L 5.671875 -3.84375 L 5.671875 -2.546875 L 2.4375 -2.546875 L 2.4375 0 L 0.828125 0 L 0.828125 -6.984375 L 6.09375 -6.984375 L 6.09375 -5.6875 Z M 2.4375 -5.6875 "/></g></g><g style="fill:#ffffff;fill-opacity:1;"><g transform="translate(124.347519, 55.351786)"><path style="stroke:none" d="M 4.203125 0.125 C 3.484375 0.125 2.832031 -0.03125 2.25 -0.34375 C 1.664062 -0.65625 1.207031 -1.085938 0.875 -1.640625 C 0.550781 -2.191406 0.390625 -2.804688 0.390625 -3.484375 C 0.390625 -4.171875 0.550781 -4.785156 0.875 -5.328125 C 1.207031 -5.878906 1.664062 -6.3125 2.25 -6.625 C 2.832031 -6.9375 3.484375 -7.09375 4.203125 -7.09375 C 4.929688 -7.09375 5.582031 -6.9375 6.15625 -6.625 C 6.738281 -6.3125 7.195312 -5.878906 7.53125 -5.328125 C 7.863281 -4.785156 8.03125 -4.171875 8.03125 -3.484375 C 8.03125 -2.804688 7.863281 -2.191406 7.53125 -1.640625 C 7.195312 -1.085938 6.738281 -0.65625 6.15625 -0.34375 C 5.582031 -0.03125 4.929688 0.125 4.203125 0.125 Z M 4.203125 -1.25 C 4.617188 -1.25 4.992188 -1.34375 5.328125 -1.53125 C 5.660156 -1.726562 5.921875 -1.992188 6.109375 -2.328125 C 6.296875 -2.671875 6.390625 -3.054688 6.390625 -3.484375 C 6.390625 -3.921875 6.296875 -4.304688 6.109375 -4.640625 C 5.921875 -4.984375 5.660156 -5.25 5.328125 -5.4375 C 4.992188 -5.625 4.617188 -5.71875 4.203125 -5.71875 C 3.796875 -5.71875 3.425781 -5.625 3.09375 -5.4375 C 2.757812 -5.25 2.5 -4.984375 2.3125 -4.640625 C 2.125 -4.304688 2.03125 -3.921875 2.03125 -3.484375 C 2.03125 -3.054688 2.125 -2.671875 2.3125 -2.328125 C 2.5 -1.992188 2.757812 -1.726562 3.09375 -1.53125 C 3.425781 -1.34375 3.796875 -1.25 4.203125 -1.25 Z M 4.203125 -1.25 "/></g></g><g style="fill:#ffffff;fill-opacity:1;"><g transform="translate(136.212538, 55.351786)"><path style="stroke:none" d="M 3.921875 0.125 C 2.929688 0.125 2.15625 -0.148438 1.59375 -0.703125 C 1.039062 -1.253906 0.765625 -2.046875 0.765625 -3.078125 L 0.765625 -6.984375 L 2.375 -6.984375 L 2.375 -3.125 C 2.375 -1.875 2.894531 -1.25 3.9375 -1.25 C 4.4375 -1.25 4.820312 -1.398438 5.09375 -1.703125 C 5.363281 -2.003906 5.5 -2.476562 5.5 -3.125 L 5.5 -6.984375 L 7.09375 -6.984375 L 7.09375 -3.078125 C 7.09375 -2.046875 6.8125 -1.253906 6.25 -0.703125 C 5.695312 -0.148438 4.921875 0.125 3.921875 0.125 Z M 3.921875 0.125 "/></g></g><g style="fill:#ffffff;fill-opacity:1;"><g transform="translate(147.519259, 55.351786)"><path style="stroke:none" d="M 7.234375 -6.984375 L 7.234375 0 L 5.90625 0 L 2.421875 -4.234375 L 2.421875 0 L 0.828125 0 L 0.828125 -6.984375 L 2.15625 -6.984375 L 5.625 -2.734375 L 5.625 -6.984375 Z M 7.234375 -6.984375 "/></g></g><g style="fill:#ffffff;fill-opacity:1;"><g transform="translate(159.025376, 55.351786)"><path style="stroke:none" d="M 0.828125 -6.984375 L 4 -6.984375 C 4.757812 -6.984375 5.425781 -6.835938 6 -6.546875 C 6.582031 -6.253906 7.035156 -5.84375 7.359375 -5.3125 C 7.679688 -4.789062 7.84375 -4.179688 7.84375 -3.484375 C 7.84375 -2.785156 7.679688 -2.175781 7.359375 -1.65625 C 7.035156 -1.132812 6.582031 -0.726562 6 -0.4375 C 5.425781 -0.144531 4.757812 0 4 0 L 0.828125 0 Z M 3.921875 -1.328125 C 4.617188 -1.328125 5.171875 -1.519531 5.578125 -1.90625 C 5.992188 -2.300781 6.203125 -2.828125 6.203125 -3.484375 C 6.203125 -4.148438 5.992188 -4.675781 5.578125 -5.0625 C 5.171875 -5.457031 4.617188 -5.65625 3.921875 -5.65625 L 2.4375 -5.65625 L 2.4375 -1.328125 Z M 3.921875 -1.328125 "/></g></g></g></svg>